<svg id="Capa_1" enable-background="new 0 0 512.002 512.002" height="512" viewBox="0 0 512.002 512.002" width="512" xmlns="http://www.w3.org/2000/svg"><g><path d="m148.501 17.5h-1.707c-2.811-5.907-8.816-10-15.793-10l-10 44.266 10 45.734c12.426 0 22.5-10.074 22.5-22.5v-23.234c7.227-2.152 12.5-8.839 12.5-16.766 0-9.665-7.835-17.5-17.5-17.5z" fill="#808080"/><path d="m115.208 17.5h-1.707c-9.665 0-17.5 7.835-17.5 17.5 0 7.926 5.273 14.613 12.5 16.766v23.234c0 12.426 10.074 22.5 22.5 22.5v-90c-6.977 0-12.982 4.093-15.793 10z" fill="#999"/><path d="m386.001 414.5h-30v45l60-15c0-16.569-13.431-30-30-30z" fill="#ff1b7c"/><path d="m356.001 414.5c-16.569 0-30 13.431-30 30l30 15 30-15c0-16.569-13.431-30-30-30z" fill="#ff4996"/><path d="m416.001 444.5h-30l-20 15 20 15h30z" fill="#ff8646"/><path d="m386.001 444.5h-30l-20 15 20 15h30z" fill="#ffa754"/><path d="m326.001 444.5h30v30h-30z" fill="#ffcb63"/><path d="m266.001 182.5-30 85 30 85h30v-170z" fill="#fff0d3"/><path d="m206.001 182.5h60v170h-60z" fill="#fff"/><path d="m281.001 172.5h-70c-11.046 0-20 8.954-20 20v30c0 10.685 6.036 20.007 15 25 8.284 0 15-6.716 15-15v-30h75z" fill="#ffa754"/><path d="m291.001 172.5h-10v60c0 8.284 6.716 15 15 15 8.964-4.993 15-14.315 15-25v-30c0-11.046-8.955-20-20-20z" fill="#ff8646"/><path d="m251.001 52.5v90c24.853 0 45-20.147 45-45s-20.147-45-45-45z" fill="#ffb4a9"/><path d="m266.001 97.5c0-24.853-6.716-45-15-45-24.853 0-45 20.147-45 45s20.147 45 45 45c8.284 0 15-20.147 15-45z" fill="#ffd9d4"/><path d="m386.001 407h-7.5v-177h7.5c12.406 0 22.5-10.094 22.5-22.5s-10.094-22.5-22.5-22.5h-7.5v-87.5c0-4.143-3.357-7.5-7.5-7.5s-7.5 3.357-7.5 7.5v87.5h-46.048c-3.274-11.528-13.889-20-26.452-20h-80c-12.563 0-23.178 8.472-26.452 20h-46.048v-80.949c12.925-3.339 22.5-15.098 22.5-29.051v-18.366c7.568-4.404 12.5-12.643 12.5-21.634 0-12.918-9.848-23.578-22.431-24.869-4.664-6.272-12.117-10.131-20.069-10.131s-15.405 3.86-20.069 10.131c-12.582 1.291-22.431 11.951-22.431 24.869 0 8.991 4.932 17.229 12.5 21.634v18.366c0 13.953 9.575 25.712 22.5 29.051v50.949h-7.5c-12.407 0-22.5 10.094-22.5 22.5s10.093 22.5 22.5 22.5h7.5v22.5c0 4.143 3.358 7.5 7.5 7.5s7.5-3.357 7.5-7.5v-22.5h45v22.5c0 11.485 5.65 22.271 15 29.09v100.91c0 4.143 3.358 7.5 7.5 7.5h7.5v129.095l-24.872 8.29c-3.93 1.31-6.053 5.558-4.744 9.487 1.048 3.143 3.974 5.13 7.114 5.13.786 0 1.586-.125 2.373-.387l30-10c3.063-1.021 5.128-3.887 5.128-7.115v-134.5h45v134.5c0 3.229 2.065 6.095 5.128 7.115l30 10c.787.262 1.587.387 2.373.387 3.141 0 6.066-1.987 7.114-5.13 1.31-3.93-.814-8.178-4.743-9.487l-24.872-8.29v-129.095h7.5c4.143 0 7.5-3.357 7.5-7.5v-100.91c9.35-6.819 15-17.604 15-29.09v-22.5h45v207h-7.5c-20.678 0-37.5 16.822-37.5 37.5v30c0 4.143 3.357 7.5 7.5 7.5s7.5-3.357 7.5-7.5v-22.5h15v22.5c0 4.143 3.357 7.5 7.5 7.5s7.5-3.357 7.5-7.5v-22.5h15v22.5c0 4.143 3.357 7.5 7.5 7.5s7.5-3.357 7.5-7.5v-22.5h15v22.5c0 4.143 3.357 7.5 7.5 7.5s7.5-3.357 7.5-7.5v-30c.001-20.678-16.821-37.5-37.499-37.5zm-270-332v-23.234c0-3.317-2.18-6.241-5.359-7.188-4.204-1.252-7.141-5.19-7.141-9.577 0-5.514 4.486-10 10-10h1.707c2.894 0 5.529-1.665 6.772-4.277 1.679-3.53 5.136-5.723 9.021-5.723s7.341 2.192 9.021 5.723c1.244 2.613 3.879 4.277 6.772 4.277h1.707c5.514 0 10 4.486 10 10 0 4.387-2.937 8.325-7.141 9.577-3.18.947-5.359 3.871-5.359 7.188v23.234c0 8.271-6.729 15-15 15s-15-6.729-15-15zm0 110c-4.136 0-7.5-3.364-7.5-7.5s3.364-7.5 7.5-7.5h7.5v15zm157.5 10h-45v-15h45zm-75 27.5v-30c0-6.893 5.607-12.5 12.5-12.5h2.5v52.5c0 3.518-2.438 6.47-5.711 7.275-5.774-3.998-9.289-10.436-9.289-17.275zm15 122.5v-91.29c8.729-3.096 15-11.433 15-21.21v-22.5h45v22.5c0 9.777 6.271 18.114 15 21.21v91.29zm90-122.5c0 6.84-3.515 13.277-9.288 17.275-3.273-.805-5.712-3.757-5.712-7.275v-52.5h2.5c6.893 0 12.5 5.607 12.5 12.5zm82.5-22.5c4.136 0 7.5 3.364 7.5 7.5s-3.364 7.5-7.5 7.5h-7.5v-15zm-30 222h30c9.777 0 18.114 6.271 21.21 15h-72.42c3.096-8.729 11.433-15 21.21-15z"/><path d="m251.001 150c28.948 0 52.5-23.552 52.5-52.5s-23.552-52.5-52.5-52.5c-28.949 0-52.5 23.552-52.5 52.5s23.551 52.5 52.5 52.5zm0-90c20.678 0 37.5 16.822 37.5 37.5s-16.822 37.5-37.5 37.5-37.5-16.822-37.5-37.5 16.822-37.5 37.5-37.5z"/></g></svg>