<svg id="_x33_0" enable-background="new 0 0 64 64" height="512" viewBox="0 0 64 64" width="512" xmlns="http://www.w3.org/2000/svg"><g><g><g><path d="m62 4v10c0 1.1-.9 2-2 2h-4c-1.67-1.25-3.75-2-6-2h-5c-1.63 0-3.09.79-4 2h-5v2.59c0 .78-.63 1.41-1.41 1.41-.38 0-.74-.15-1-.41l-3.59-3.59h-7.53c-.08-.08-.15-.16-.23-.24-1.08-1.09-2.58-1.76-4.24-1.76h-3.72c-2.48 0-4.79.74-6.72 2.01v-.01h-3.56c-1.1 0-2-.9-2-2v-10c0-1.1.9-2 2-2h56c1.1 0 2 .9 2 2z" fill="#e6e9ed"/></g><g><path d="m13 24c-.64.64-1 1.51-1 2.41v1.59c-2.21 0-4 1.79-4 4s1.79 4 4 4v4l-4 1-.06.01c-.16-1.62-.71-3.17-1.62-4.53l-2.26-3.39c-1.34-2.01-2.06-4.38-2.06-6.81 0-4.3 2.21-8.08 5.56-10.27 1.93-1.27 4.24-2.01 6.72-2.01h3.72c1.66 0 3.16.67 4.24 1.76.08.08.15.16.23.24.95 1.06 1.53 2.46 1.53 4 0 2.21-1.79 4-4 4z" fill="#656d78"/></g><g><path d="m20 55.96c.17.03.33.04.5.04.65 0 1.28-.17 1.83-.5l3.22 4.82c-.56.43-1.17.77-1.82 1.04-1.01.42-2.11.64-3.23.64-1.83 0-3.6-.59-5.05-1.68l3.22-4.82c.41.24.86.4 1.33.46z" fill="#b4dd7f"/></g><g><path d="m18.67 55.5-3.22 4.82c-.32-.24-.63-.5-.92-.79l-5.53-5.53c2.16 0 4.01-1.38 4.7-3.3l4.24 4.24c.22.22.46.41.73.56z" fill="#b4dd7f"/></g><g><path d="m20.5 62h-14.5v-9c.83.63 1.87 1 3 1l5.53 5.53c.29.29.6.55.92.79 1.45 1.09 3.22 1.68 5.05 1.68z" fill="#b4dd7f"/></g><g><path d="m20 52.68v3.28c-.47-.06-.92-.22-1.33-.46-.27-.15-.51-.34-.73-.56l-4.24-4.24c.2-.53.3-1.1.3-1.7 0-2.14-1.34-3.96-3.23-4.68l1.23.23 1.43.26c.93.17 1.79.49 2.57.94 2.42 1.39 4 4 4 6.93z" fill="#b4dd7f"/></g><g><path d="m32 52.83c0 .75-.3 1.47-.83 2l-4.7 4.7c-.29.29-.6.55-.92.79l-3.22-4.82c.27-.15.51-.34.73-.56l4.11-4.11c.53-.53 1.25-.83 2-.83.78 0 1.49.32 2 .83s.83 1.22.83 2z" fill="#e6e9ed"/></g><g><path d="m12 40v4.55l-1.23-.23c-.55-.21-1.15-.32-1.77-.32-.34 0-.68.03-1 .1v-2.07c0-.34-.02-.68-.06-1.02l.06-.01z" fill="#e6e9ed"/></g><g><path d="m16 40.57v5.18c-.78-.45-1.64-.77-2.57-.94l-1.43-.26v-4.55z" fill="#e6e9ed"/></g><g><path d="m23.95 37c-.14 1.02-.62 1.94-1.32 2.63-.84.85-2.01 1.37-3.3 1.37-.22 0-.44-.02-.66-.05l-2.67-.38-4-.57v-4c2.21 0 4-1.79 4-4s-1.79-4-4-4v-1.59c0-.9.36-1.77 1-2.41h7c2.21 0 4-1.79 4-4l2 13-2 1v2.33c0 .23-.02.45-.05.67z" fill="#e6e9ed"/></g><g><path d="m14 49c0 .6-.1 1.17-.3 1.7-.69 1.92-2.54 3.3-4.7 3.3-1.13 0-2.17-.37-3-1-1.21-.91-2-2.37-2-4 0-2.42 1.72-4.44 4-4.9.32-.07.66-.1 1-.1.62 0 1.22.11 1.77.32 1.89.72 3.23 2.54 3.23 4.68z" fill="#fcd770"/></g><g><circle cx="12" cy="32" fill="#fcd770" r="4"/></g><g><circle cx="12" cy="8" fill="#ff826e" r="2"/></g><g><path d="m61.36 53.27c.42 1 .64 2.09.64 3.2 0 1.65-.49 3.26-1.41 4.64l-.59.89h-3l-.08-.25c-.59-1.77-.9-3.62-.92-5.48 1.23-1.16 2-2.81 2-4.64v-3.63-.5c0 .96.38 1.88 1.06 2.56l.49.49c.79.79 1.4 1.71 1.81 2.72z" fill="#fcd770"/></g><g><path d="m48 22c0 .55-.22 1.05-.59 1.41-.36.37-.86.59-1.41.59h-1c-1.13 0-2.17-.37-3-1-.19-.14-.37-.29-.54-.46-.9-.91-1.46-2.16-1.46-3.54 0-1.13.37-2.17 1-3 .91-1.21 2.37-2 4-2h5c2.25 0 4.33.75 6 2 2.43 1.82 4 4.73 4 8v7.58c0 .94.22 1.85.63 2.69l.56 1.11c.53 1.06.81 2.24.81 3.44 0 2.03-.81 3.99-2.25 5.43l-.69.69c-.68.68-1.06 1.6-1.06 2.56v-1.55c0-2.05-.37-3.82-1.06-5.31-.68-1.48-1.68-2.7-2.94-3.64-1.3-1.96-2-4.26-2-6.61v-4.39c0-2.21-1.79-4-4-4z" fill="#fcd770"/></g><g><path d="m52 53v-5h6v3.63c0 1.83-.77 3.48-2 4.64-1.14 1.07-2.67 1.73-4.36 1.73s-3.31-.67-4.51-1.86l-3.13-3.13v-.01l-7.17-7.17c-.53-.53-.83-1.25-.83-2 0-.78.32-1.49.83-2s1.22-.83 2-.83c.75 0 1.47.3 2 .83l3.8 3.8z" fill="#f0d0b4"/></g><g><path d="m52 48v5l-7.37-7.37c.65-2.4 1.79-4.66 3.37-6.63l6-2c1.26.94 2.26 2.16 2.94 3.64.69 1.49 1.06 3.26 1.06 5.31v1.55.5z" fill="#ff826e"/></g><g><path d="m56.92 61.75.08.25h-13v-8.99l3.13 3.13c1.2 1.19 2.82 1.86 4.51 1.86s3.22-.66 4.36-1.73c.02 1.86.33 3.71.92 5.48z" fill="#ff826e"/></g><g><path d="m42.35 33h-.01c-.22-.63-.34-1.3-.34-2v-8c.83.63 1.87 1 3 1h1c.55 0 1.05-.22 1.41-.59.37-.36.59-.86.59-1.41 2.21 0 4 1.79 4 4v4.39c0 2.35.7 4.65 2 6.61l-6 2v-2c-2.61 0-4.84-1.67-5.65-4z" fill="#f0d0b4"/></g><g><circle cx="52" cy="8" fill="#ff826e" r="2"/></g><g><circle cx="42" cy="8" fill="#ff826e" r="2"/></g><g><circle cx="32" cy="8" fill="#ff826e" r="2"/></g><g><circle cx="22" cy="8" fill="#ff826e" r="2"/></g></g><g><circle cx="20" cy="28" r="1"/><circle cx="46" cy="27" r="1"/><path d="m32 5c-1.654 0-3 1.346-3 3s1.346 3 3 3 3-1.346 3-3-1.346-3-3-3zm0 4c-.551 0-1-.449-1-1s.449-1 1-1 1 .449 1 1-.449 1-1 1z"/><path d="m22 5c-1.654 0-3 1.346-3 3s1.346 3 3 3 3-1.346 3-3-1.346-3-3-3zm0 4c-.551 0-1-.449-1-1s.449-1 1-1 1 .449 1 1-.449 1-1 1z"/><path d="m12 5c-1.654 0-3 1.346-3 3s1.346 3 3 3 3-1.346 3-3-1.346-3-3-3zm0 4c-.551 0-1-.449-1-1s.449-1 1-1 1 .449 1 1-.449 1-1 1z"/><path d="m52 11c1.654 0 3-1.346 3-3s-1.346-3-3-3-3 1.346-3 3 1.346 3 3 3zm0-4c.551 0 1 .449 1 1s-.449 1-1 1-1-.449-1-1 .449-1 1-1z"/><path d="m45 8c0-1.654-1.346-3-3-3s-3 1.346-3 3 1.346 3 3 3 3-1.346 3-3zm-4 0c0-.551.449-1 1-1s1 .449 1 1-.449 1-1 1-1-.449-1-1z"/><path d="m63 14v-10c0-1.654-1.346-3-3-3h-56c-1.654 0-3 1.346-3 3v10c0 1.654 1.346 3 3 3h.798c-2.345 2.396-3.798 5.671-3.798 9.281 0 2.631.771 5.178 2.23 7.368l2.258 3.387c.989 1.483 1.512 3.209 1.512 4.992v1.322c-2.327.826-4 3.043-4 5.65 0 1.771.776 3.36 2 4.46v9.54h16v-.024c2.335-.121 4.516-1.077 6.182-2.744l4.696-4.696c.724-.723 1.122-1.685 1.122-2.707 0-2.112-1.717-3.829-3.829-3.829-1.022 0-1.984.398-2.707 1.122l-4.111 4.111c-.373.373-.85.605-1.354.697v-2.253c0-3.085-1.566-5.848-4-7.477v-3.476l1.53.219c.266.038.534.057.803.057 3.125 0 5.668-2.543 5.668-5.668v-1.713l2.099-1.05-2.105-13.681c-.017-1.033-.26-2.009-.679-2.887h5.271l3.293 3.293c.456.455 1.062.706 1.707.706 1.331 0 2.414-1.083 2.414-2.414v-1.586h2.349c-.222.626-.349 1.296-.349 1.998 0 1.771.776 3.36 2 4.46v7.542c0 3.521 2.612 6.442 6 6.929v.742c-1.199 1.559-2.15 3.262-2.821 5.095l-2.642-2.642c-.724-.724-1.685-1.122-2.708-1.122-2.112 0-3.83 1.718-3.83 3.831 0 1.023.398 1.985 1.122 2.708l6.879 6.878v9.581h17.535l.892-1.337c1.029-1.545 1.573-3.342 1.573-5.197 0-2.502-.975-4.855-2.744-6.625l-.488-.488c-.493-.493-.764-1.147-.767-1.844v-.02c.003-.696.274-1.351.767-1.844l.688-.688c1.64-1.639 2.544-3.821 2.544-6.142 0-1.341-.317-2.685-.917-3.886l-.555-1.108c-.345-.692-.528-1.466-.528-2.238v-7.586c0-2.656-.946-5.095-2.519-6.998h1.519c1.654.001 3-1.345 3-2.999zm-58.105 18.54c-1.24-1.86-1.895-4.024-1.895-6.259 0-6.22 5.061-11.281 11.281-11.281h3.719c2.757 0 5 2.243 5 5 0 1.654-1.346 3-3 3h-9c-1.103 0-2-.897-2-2h-2c0 2.206 1.794 4 4 4h.25c-.153.451-.25.923-.25 1.414v.687c-2.279.465-4 2.485-4 4.899s1.721 4.434 4 4.899v2.32l-2.236.559c-.285-1.367-.826-2.673-1.611-3.852zm7.105 2.46c-1.654 0-3-1.346-3-3s1.346-3 3-3 3 1.346 3 3-1.346 3-3 3zm-3.009 6.783 2.009-.502v2.066l-.015-.003c-.622-.219-1.289-.344-1.985-.344v-.972c0-.082-.007-.163-.009-.245zm7.853 18.254 2.195-3.293c.467.156.954.256 1.461.256s.994-.1 1.461-.256l2.195 3.293c-1.104.625-2.353.963-3.656.963s-2.552-.338-3.656-.963zm-1.599-1.207c-.004-.004-.009-.008-.013-.012l-4.185-4.185c1.191-.434 2.209-1.229 2.912-2.26l3.274 3.274c.027.027.06.045.087.072zm-6.245-13.83c2.206 0 4 1.794 4 4s-1.794 4-4 4-4-1.794-4-4 1.794-4 4-4zm-2 16v-6.35c.495.176 1.019.289 1.564.328l5.254 5.254c.278.278.575.53.88.768zm20.878-9.464c.346-.346.805-.536 1.293-.536 1.009 0 1.829.82 1.829 1.829 0 .488-.19.947-.536 1.293l-4.696 4.696c-.004.004-.009.008-.013.012l-2.074-3.112c.027-.026.06-.045.087-.072zm-8.878 1.141v1.841c-.124-.085-.245-.176-.354-.285l-3.821-3.821c.11-.454.175-.925.175-1.412 0-1.07-.285-2.073-.777-2.944 2.815.944 4.777 3.577 4.777 6.621zm-4-8.481c-.448-.158-.91-.287-1.39-.375l-.61-.11v-2.558l2 .286zm8-10.814v2.618h-2c-1.103 0-2-.897-2-2h-2c0 2.206 1.794 4 4 4h1.58c-.61 1.182-1.829 2-3.248 2-.173 0-.347-.012-.519-.037l-5.813-.83v-2.234c2.279-.465 4-2.484 4-4.899s-1.721-4.434-4-4.899v-.687c0-.508.171-1.004.467-1.414h6.533c1.378 0 2.627-.56 3.532-1.465l1.369 8.896zm12-18.382v3.586c0 .337-.469.532-.707.293l-3.879-3.879h-7.524c-1.263-1.235-2.988-2-4.89-2h-3.719c-2.56 0-4.944.74-6.974 2h-3.307c-.551 0-1-.449-1-1v-10c0-.551.449-1 1-1h56c.551 0 1 .449 1 1v10c0 .551-.449 1-1 1h-3.692c-1.788-1.257-3.961-2.002-6.308-2.002h-5c-1.772 0-3.362.777-4.462 2.002zm9.026 19h.974c2.206 0 4-1.794 4-4h-2c0 1.103-.897 2-2 2h-1.899c-.066-.323-.101-.658-.101-1v-6.352c.627.223 1.298.35 2 .35h1c1.259 0 2.336-.782 2.78-1.884 1.275.346 2.22 1.501 2.22 2.884v4.394c0 2.124.525 4.189 1.513 6.048l-3.513 1.17v-1.61h-1c-1.627 0-3.061-.793-3.974-2zm4.575 5.852 5.204-1.733c2.122 1.791 3.197 4.422 3.197 7.831v1.05h-4.002v-4h-2v7.586l-5.242-5.242c.61-1.994 1.564-3.838 2.843-5.492zm-11.602 3.98c0-1.009.821-1.831 1.83-1.831.489 0 .948.19 1.294.536l12.17 12.17 1.414-1.414-.707-.707v-3.586h4.001v2.635c0 2.959-2.407 5.366-5.366 5.367h-.001c-1.434 0-2.781-.558-3.795-1.572l-10.304-10.305c-.346-.345-.536-.805-.536-1.293zm8.001 11.587 1.425 1.425c1.391 1.392 3.241 2.158 5.209 2.158h.002c1.26 0 2.446-.319 3.484-.879.105.972.284 1.932.539 2.878h-10.659zm16 1.047c0 1.459-.428 2.873-1.237 4.087l-.298.447h-1.725c-.43-1.416-.672-2.876-.72-4.355 1.225-1.316 1.981-3.074 1.981-5.01v-.203c1.287 1.37 1.999 3.146 1.999 5.034zm-1.261-21.751.555 1.109c.462.924.706 1.958.706 2.991 0 1.787-.696 3.467-1.959 4.73l-.206.206c-.436-3.113-1.813-5.647-4.065-7.41-1.156-1.775-1.77-3.829-1.77-5.95v-4.394c0-2.468-1.802-4.512-4.158-4.915-.389-1.205-1.509-2.085-2.842-2.085h-1v2h1c.551 0 1 .449 1 1s-.449 1-1 1h-1c-2.206 0-4-1.794-4-4s1.794-4 4-4h5c4.962 0 9 4.038 9 9v7.586c0 1.082.255 2.164.739 3.132z"/></g></g></svg>